<mxfile host="app.diagrams.net" agent="Mozilla/5.0 (Windows NT 10.0; Win64; x64) AppleWebKit/537.36 (KHTML, like Gecko) Chrome/136.0.0.0 Safari/537.36 Edg/136.0.0.0" version="26.2.12">
  <diagram name="Page-1" id="bZyc8t36V2cBOL43YzVU">
    <mxGraphModel dx="1420" dy="786" grid="1" gridSize="10" guides="1" tooltips="1" connect="1" arrows="1" fold="1" page="1" pageScale="1" pageWidth="3300" pageHeight="4681" math="0" shadow="0">
      <root>
        <mxCell id="0" />
        <mxCell id="1" parent="0" />
        <mxCell id="ElkucRvx5EaO0qxAhqln-6" style="edgeStyle=orthogonalEdgeStyle;rounded=0;orthogonalLoop=1;jettySize=auto;html=1;exitX=1;exitY=0.5;exitDx=0;exitDy=0;entryX=0;entryY=0.5;entryDx=0;entryDy=0;" edge="1" parent="1" source="ElkucRvx5EaO0qxAhqln-1" target="ElkucRvx5EaO0qxAhqln-5">
          <mxGeometry relative="1" as="geometry" />
        </mxCell>
        <mxCell id="ElkucRvx5EaO0qxAhqln-1" value="USB-HID驱动" style="rounded=0;whiteSpace=wrap;html=1;" vertex="1" parent="1">
          <mxGeometry x="340" y="240" width="100" height="40" as="geometry" />
        </mxCell>
        <mxCell id="ElkucRvx5EaO0qxAhqln-2" value="" style="endArrow=none;dashed=1;html=1;rounded=0;" edge="1" parent="1">
          <mxGeometry width="50" height="50" relative="1" as="geometry">
            <mxPoint x="240" y="300" as="sourcePoint" />
            <mxPoint x="1120" y="300" as="targetPoint" />
          </mxGeometry>
        </mxCell>
        <mxCell id="ElkucRvx5EaO0qxAhqln-4" style="edgeStyle=orthogonalEdgeStyle;rounded=0;orthogonalLoop=1;jettySize=auto;html=1;exitX=0.5;exitY=0;exitDx=0;exitDy=0;entryX=0.5;entryY=1;entryDx=0;entryDy=0;" edge="1" parent="1" source="ElkucRvx5EaO0qxAhqln-3" target="ElkucRvx5EaO0qxAhqln-1">
          <mxGeometry relative="1" as="geometry" />
        </mxCell>
        <mxCell id="ElkucRvx5EaO0qxAhqln-3" value="无线HID设备&lt;div&gt;（无线鼠标）&lt;/div&gt;" style="rounded=0;whiteSpace=wrap;html=1;" vertex="1" parent="1">
          <mxGeometry x="340" y="330" width="100" height="40" as="geometry" />
        </mxCell>
        <mxCell id="ElkucRvx5EaO0qxAhqln-8" style="edgeStyle=orthogonalEdgeStyle;rounded=0;orthogonalLoop=1;jettySize=auto;html=1;exitX=1;exitY=0.5;exitDx=0;exitDy=0;entryX=0;entryY=0.5;entryDx=0;entryDy=0;" edge="1" parent="1" source="ElkucRvx5EaO0qxAhqln-5" target="ElkucRvx5EaO0qxAhqln-7">
          <mxGeometry relative="1" as="geometry" />
        </mxCell>
        <mxCell id="ElkucRvx5EaO0qxAhqln-5" value="事件总线" style="rounded=0;whiteSpace=wrap;html=1;" vertex="1" parent="1">
          <mxGeometry x="510" y="240" width="100" height="40" as="geometry" />
        </mxCell>
        <mxCell id="ElkucRvx5EaO0qxAhqln-10" style="edgeStyle=orthogonalEdgeStyle;rounded=0;orthogonalLoop=1;jettySize=auto;html=1;exitX=0.5;exitY=1;exitDx=0;exitDy=0;entryX=0.5;entryY=0;entryDx=0;entryDy=0;" edge="1" parent="1" source="ElkucRvx5EaO0qxAhqln-7" target="ElkucRvx5EaO0qxAhqln-9">
          <mxGeometry relative="1" as="geometry" />
        </mxCell>
        <mxCell id="ElkucRvx5EaO0qxAhqln-7" value="I2C驱动" style="rounded=0;whiteSpace=wrap;html=1;" vertex="1" parent="1">
          <mxGeometry x="660" y="240" width="100" height="40" as="geometry" />
        </mxCell>
        <mxCell id="ElkucRvx5EaO0qxAhqln-12" style="edgeStyle=orthogonalEdgeStyle;rounded=0;orthogonalLoop=1;jettySize=auto;html=1;exitX=1;exitY=0.5;exitDx=0;exitDy=0;" edge="1" parent="1" source="ElkucRvx5EaO0qxAhqln-9" target="ElkucRvx5EaO0qxAhqln-11">
          <mxGeometry relative="1" as="geometry" />
        </mxCell>
        <mxCell id="ElkucRvx5EaO0qxAhqln-9" value="I2C-&lt;span style=&quot;background-color: transparent; color: light-dark(rgb(0, 0, 0), rgb(255, 255, 255));&quot;&gt;SMBUS&lt;/span&gt;&lt;div&gt;&lt;span style=&quot;background-color: transparent; color: light-dark(rgb(0, 0, 0), rgb(255, 255, 255));&quot;&gt;驱动板&lt;/span&gt;&lt;/div&gt;" style="rounded=0;whiteSpace=wrap;html=1;" vertex="1" parent="1">
          <mxGeometry x="660" y="330" width="100" height="40" as="geometry" />
        </mxCell>
        <mxCell id="ElkucRvx5EaO0qxAhqln-11" value="I2C从设备-车轮" style="rounded=0;whiteSpace=wrap;html=1;" vertex="1" parent="1">
          <mxGeometry x="830" y="330" width="100" height="40" as="geometry" />
        </mxCell>
        <mxCell id="ElkucRvx5EaO0qxAhqln-13" value="" style="endArrow=none;dashed=1;html=1;rounded=0;" edge="1" parent="1">
          <mxGeometry width="50" height="50" relative="1" as="geometry">
            <mxPoint x="240" y="300" as="sourcePoint" />
            <mxPoint x="960" y="300" as="targetPoint" />
          </mxGeometry>
        </mxCell>
      </root>
    </mxGraphModel>
  </diagram>
</mxfile>
